<svg width="31" height="30" viewBox="0 0 31 30" fill="none" xmlns="http://www.w3.org/2000/svg">
<path d="M15.4999 3.22461C10.0201 3.22461 5.13131 7.16331 3.98501 12.5267C3.41231 15.2066 3.79811 18.0563 5.07581 20.4812C6.30551 22.8149 8.32151 24.701 10.7335 25.7699C13.2424 26.882 16.1227 27.0758 18.7597 26.3174C21.3037 25.586 23.5594 23.9807 25.0951 21.8258C28.306 17.3207 27.8767 10.9925 24.0991 6.95571C21.8851 4.58991 18.7405 3.22461 15.4999 3.22461ZM21.1486 15.6287L17.9386 18.9161C17.1259 19.7486 15.8413 18.4874 16.6507 17.6588L18.2704 16.0001H10.5946C10.0495 16.0001 9.59471 15.545 9.59471 15.0002C9.59471 14.4554 10.0498 14.0003 10.5946 14.0003H18.232L16.5802 12.3488C15.7594 11.528 17.032 10.2551 17.8528 11.0759L21.1411 14.3639C21.3086 14.5313 21.4033 14.758 21.4047 14.9948C21.4061 15.2316 21.3141 15.4594 21.1486 15.6287Z" fill="white"/>
</svg>
